<?xml version="1.0" encoding="UTF-8" standalone="no"?>
<!-- Created with Inkscape (http://www.inkscape.org/) -->

<svg
   xmlns:dc="http://purl.org/dc/elements/1.1/"
   xmlns:cc="http://creativecommons.org/ns#"
   xmlns:rdf="http://www.w3.org/1999/02/22-rdf-syntax-ns#"
   xmlns:svg="http://www.w3.org/2000/svg"
   xmlns="http://www.w3.org/2000/svg"
   xmlns:sodipodi="http://sodipodi.sourceforge.net/DTD/sodipodi-0.dtd"
   xmlns:inkscape="http://www.inkscape.org/namespaces/inkscape"
   width="48pt"
   height="48pt"
   viewBox="0 0 16.933334 16.933333"
   version="1.1"
   id="svg979"
   inkscape:version="0.92.4 (5da689c313, 2019-01-14)"
   sodipodi:docname="12 - Epilator.svg"
   inkscape:export-filename="E:\TR Design Studio Creative\Project Design\TR Creative Design\Icon Design\Project Hiring\Icon Icons\Project - 001\002 - Beauty And Fashion\Send\Line\12 - Epilator.png"
   inkscape:export-xdpi="768"
   inkscape:export-ydpi="768">
  <defs
     id="defs973" />
  <sodipodi:namedview
     id="base"
     pagecolor="#ffffff"
     bordercolor="#666666"
     borderopacity="1.0"
     inkscape:pageopacity="0.0"
     inkscape:pageshadow="2"
     inkscape:zoom="8.546875"
     inkscape:cx="12.987203"
     inkscape:cy="32"
     inkscape:document-units="pt"
     inkscape:current-layer="layer1"
     showgrid="false"
     units="pt"
     inkscape:window-width="1366"
     inkscape:window-height="716"
     inkscape:window-x="-8"
     inkscape:window-y="-8"
     inkscape:window-maximized="1"
     inkscape:snap-bbox="true"
     inkscape:bbox-nodes="true"
     inkscape:snap-nodes="false"
     showguides="false">
    <inkscape:grid
       type="xygrid"
       id="grid1526" />
    <sodipodi:guide
       position="0.97013909,15.963209"
       orientation="56.666615,0"
       id="guide1528"
       inkscape:locked="false" />
    <sodipodi:guide
       position="0.97013909,0.97016731"
       orientation="0,56.666667"
       id="guide1530"
       inkscape:locked="false" />
    <sodipodi:guide
       position="15.963195,0.97016731"
       orientation="-56.666615,0"
       id="guide1532"
       inkscape:locked="false" />
    <sodipodi:guide
       position="15.963195,15.963209"
       orientation="0,-56.666667"
       id="guide1534"
       inkscape:locked="false" />
  </sodipodi:namedview>
  <metadata
     id="metadata976">
    <rdf:RDF>
      <cc:Work
         rdf:about="">
        <dc:format>image/svg+xml</dc:format>
        <dc:type
           rdf:resource="http://purl.org/dc/dcmitype/StillImage" />
        <dc:title></dc:title>
      </cc:Work>
    </rdf:RDF>
  </metadata>
  <g
     inkscape:label="Layer 1"
     inkscape:groupmode="layer"
     id="layer1"
     transform="translate(0,-280.06668)">
    <path
       style="color:#000000;font-style:normal;font-variant:normal;font-weight:normal;font-stretch:normal;font-size:medium;line-height:normal;font-family:sans-serif;font-variant-ligatures:normal;font-variant-position:normal;font-variant-caps:normal;font-variant-numeric:normal;font-variant-alternates:normal;font-feature-settings:normal;text-indent:0;text-align:start;text-decoration:none;text-decoration-line:none;text-decoration-style:solid;text-decoration-color:#000000;letter-spacing:normal;word-spacing:normal;text-transform:none;writing-mode:lr-tb;direction:ltr;text-orientation:mixed;dominant-baseline:auto;baseline-shift:baseline;text-anchor:start;white-space:normal;shape-padding:0;clip-rule:nonzero;display:inline;overflow:visible;visibility:visible;opacity:1;isolation:auto;mix-blend-mode:normal;color-interpolation:sRGB;color-interpolation-filters:linearRGB;solid-color:#000000;solid-opacity:1;vector-effect:none;fill:#000000;fill-opacity:1;fill-rule:nonzero;stroke:none;stroke-width:0.529167;stroke-linecap:round;stroke-linejoin:round;stroke-miterlimit:10;stroke-dasharray:none;stroke-dashoffset:0;stroke-opacity:1;paint-order:markers fill stroke;color-rendering:auto;image-rendering:auto;shape-rendering:auto;text-rendering:auto;enable-background:accumulate"
       d="m 6.1849897,281.03686 c -0.5360219,0 -0.9770846,0.44043 -0.9770846,0.97645 v 0.32717 c -0.7161115,0 -1.3036267,0.58815 -1.3036267,1.30427 3.258e-4,0.0211 0.00261,0.0419 0.00701,0.0625 l 0.3246357,1.63137 c 0.062313,0.3116 0.191594,0.60724 0.4067446,0.84151 0.1612358,0.17556 0.3792119,0.3111 0.6295377,0.36792 l 0.2603408,1.04709 v 5.49968 c 0,1.46659 1.131724,2.93507 2.9350699,2.93507 1.8033529,0 2.9331609,-1.46849 2.9331609,-2.93507 v -5.49968 l 0.260344,-1.04455 c 0.573084,-0.11776 1.008188,-0.61633 1.036917,-1.21579 l 0.326543,-1.62762 c 0.0036,-0.0207 0.0048,-0.0415 0.0044,-0.0625 -1.4e-5,-0.71611 -0.587529,-1.30426 -1.303641,-1.30426 v -0.32717 c 0,-0.53602 -0.441062,-0.97645 -0.977085,-0.97645 z m 0,0.65182 h 0.6518134 v 1.30362 c 0,0.43464 0.6518134,0.43464 0.6518134,0 v -1.30362 h 0.6518133 v 1.30362 c 0,0.43464 0.6524489,0.43464 0.6524489,0 v -1.30362 h 0.6518134 v 1.30362 c 0,0.43464 0.6518129,0.43464 0.6518129,0 v -1.30362 h 0.651814 c 0.18619,0 0.325271,0.13844 0.325271,0.32463 v 2.28325 c 0,0.1862 -0.139081,0.32464 -0.325271,0.32464 H 6.1849897 c -0.1861937,0 -0.3252712,-0.13844 -0.3252712,-0.32464 v -2.28325 c 0,-0.18619 0.1390775,-0.32463 0.3252712,-0.32463 z m -0.9770846,1.30362 v 1.30426 c 0,0.53602 0.4410627,0.97708 0.9770846,0.97708 h 4.5633293 c 0.536022,0 0.977085,-0.44106 0.977085,-0.97708 v -1.30426 c 0.361163,0 0.643147,0.28732 0.647355,0.64736 l -0.315722,1.57097 c -0.0036,0.0207 -0.0048,0.0414 -0.0045,0.0623 0,0.36386 -0.287965,0.65245 -0.651814,0.65245 H 5.5325376 c -0.1798093,0 -0.298964,-0.0631 -0.4112031,-0.18524 -0.1122392,-0.12219 -0.2014852,-0.3117 -0.2450655,-0.5296 l -0.3157221,-1.57096 c 0.00419,-0.36004 0.2861949,-0.64736 0.6473582,-0.64736 z m 0.7428391,3.58498 h 5.0318198 l -0.224061,0.90005 c -0.0063,0.0251 -0.01008,0.0504 -0.01016,0.0764 v 2.28327 h -0.651819 c -0.356125,0 -0.6518103,0.29633 -0.6518136,0.65244 v 0.97646 c 0,0.21241 -0.1221993,0.46869 -0.3201772,0.6639 -0.1979786,0.19521 -0.4597795,0.31298 -0.6569073,0.31253 -0.1980893,-3.8e-4 -0.4582509,-0.11751 -0.6562686,-0.31253 -0.1980306,-0.19499 -0.3227388,-0.45149 -0.3227388,-0.6639 v -0.97646 C 7.488612,290.13333 7.1929266,289.837 6.8368051,289.837 H 6.1849897 v -2.28327 c -1.271e-4,-0.026 -0.00326,-0.0512 -0.00955,-0.0764 z m 2.5168633,0.97644 c -0.5361327,0 -0.978991,0.4435 -0.978991,0.97963 0,0.53613 0.4428583,0.97645 0.978991,0.97645 0.5361329,0 0.9770846,-0.44032 0.9770846,-0.97645 0,-0.53613 -0.4409517,-0.97963 -0.9770846,-0.97963 z m 0,0.65245 c 0.1838668,0 0.3252712,0.14331 0.3252712,0.32718 0,0.18386 -0.1414044,0.32463 -0.3252712,0.32463 -0.1838666,0 -0.3271777,-0.14077 -0.3271777,-0.32463 0,-0.18387 0.1433111,-0.32718 0.3271777,-0.32718 z m 0,1.95607 c -0.3561247,0 -0.6518132,0.2957 -0.6518132,0.65182 0,0.35613 0.2956885,0.65182 0.6518132,0.65182 0.3561281,0 0.6524523,-0.29569 0.6524523,-0.65182 0,-0.35612 -0.2963242,-0.65182 -0.6524523,-0.65182 z m -2.2826178,0.32719 h 0.6518134 v 0.97645 c 0,0.4394 0.2187454,0.835 0.5168652,1.12857 0.2981231,0.29356 0.6874154,0.49947 1.1120295,0.50032 0.4255787,9.4e-4 0.81769,-0.20633 1.115849,-0.50032 0.2981591,-0.294 0.5149582,-0.68917 0.5149582,-1.12857 v -0.97645 h 0.651814 v 2.60534 c 0,1.14066 -0.8249938,2.28326 -2.2807115,2.28326 -1.4557175,0 -2.2826178,-1.14258 -2.2826178,-2.28326 z m 1.9554401,3.25715 a 0.32598882,0.32598882 0 1 0 0,0.65182 h 0.6524489 a 0.32598882,0.32598882 0 1 0 0,-0.65182 z"
       id="rect1398"
       inkscape:connector-curvature="0" />
  </g>
</svg>
