<?xml version="1.0" ?><svg id="outine" viewBox="0 0 48 48" xmlns="http://www.w3.org/2000/svg"><title/><path d="M28.107,39.675l14.8-8.9a2.55,2.55,0,0,0,.734-3.507,2.521,2.521,0,0,0-3.415-.9l-12.28,6.905-10-.965a1.036,1.036,0,0,1,.173-2.064l8.434.608a2.536,2.536,0,0,0,2.717-2.6l-.014-.49a2.544,2.544,0,0,0-2.267-2.452L15.459,24.1a.733.733,0,0,0-.359.05L6.532,27.6l-5.626-1.2a.742.742,0,0,0-.889.577.75.75,0,0,0,.577.89l5.85,1.242a.733.733,0,0,0,.437-.038l8.606-3.47,11.334,1.2a1.036,1.036,0,0,1,.925,1l.014.49a1.019,1.019,0,0,1-.319.776,1.035,1.035,0,0,1-.791.284l-8.433-.607a2.469,2.469,0,0,0-1.847.617A2.535,2.535,0,0,0,17.791,33.8l10.24.989a.721.721,0,0,0,.44-.093l12.485-7.021a1.056,1.056,0,0,1,1.443.451,1.026,1.026,0,0,1-.3,1.383L27.456,38.316l-15.335,2.6L.924,38.241A.75.75,0,0,0,.576,39.7l11.346,2.706a.727.727,0,0,0,.174.021.745.745,0,0,0,.125-.011l15.625-2.645A.722.722,0,0,0,28.107,39.675Z"/><path d="M43.8,13.633H43V8.841a.75.75,0,0,0-.75-.75H40.708V4.534H41.5a.75.75,0,0,0,.75-.75V1.548l3.012,0,0-1.5-3.683,0A.7.7,0,0,0,41.5.033a.657.657,0,0,0-.077.016L34.316.055a.658.658,0,0,0-.109-.022A.779.779,0,0,0,34.1.055l-4.5,0a43.449,43.449,0,0,0-8.84,1.484.75.75,0,1,0,.394,1.447A42.912,42.912,0,0,1,29.6,1.558l3.857,0V3.784a.75.75,0,0,0,.75.75H35V8.091H33.451a.75.75,0,0,0-.75.75v4.792h-.8a4.2,4.2,0,0,0-4.2,4.2V24a.75.75,0,0,0,1.5,0V17.83a2.7,2.7,0,0,1,2.7-2.7h6.8a.75.75,0,0,0,0-1.5H34.2V9.591h7.3v4.042h-.547a.75.75,0,0,0,0,1.5H43.8a2.7,2.7,0,0,1,2.7,2.7V43.836a2.7,2.7,0,0,1-2.7,2.7H31.9a2.7,2.7,0,0,1-2.7-2.7V41.263a.75.75,0,0,0-1.5,0v2.573a4.2,4.2,0,0,0,4.2,4.2H43.8a4.2,4.2,0,0,0,4.2-4.2V17.83A4.2,4.2,0,0,0,43.8,13.633ZM34.957,1.555l5.792-.006V3.034H34.957ZM36.5,4.534h2.71V8.091H36.5Z"/><path d="M20.957,20.979A4.952,4.952,0,0,0,25.9,16.032,4.9,4.9,0,0,0,25.46,14l-.007-.015-3.819-8a.782.782,0,0,0-1.354,0L16.454,14a4.9,4.9,0,0,0-.445,2.032A4.953,4.953,0,0,0,20.957,20.979Zm-3.143-6.347,3.143-6.579L24.1,14.624a3.409,3.409,0,0,1,.308,1.408,3.448,3.448,0,0,1-6.895,0A3.408,3.408,0,0,1,17.814,14.632Z"/></svg>